<svg width="18" height="18" viewBox="0 0 18 18" fill="none" xmlns="http://www.w3.org/2000/svg">
<mask id="mask0_667_9359" style="mask-type:alpha" maskUnits="userSpaceOnUse" x="0" y="0" width="18" height="18">
<rect width="18" height="18" fill="#D9D9D9"/>
</mask>
<g mask="url(#mask0_667_9359)">
<path d="M6.30293 12.7539L9.00293 10.0539L11.7029 12.7539L12.7529 11.7039L10.0529 9.00391L12.7529 6.30391L11.7029 5.25391L9.00293 7.95391L6.30293 5.25391L5.25293 6.30391L7.95293 9.00391L5.25293 11.7039L6.30293 12.7539ZM9.00293 16.5039C7.96543 16.5039 6.99043 16.307 6.07793 15.9133C5.16543 15.5195 4.37168 14.9852 3.69668 14.3102C3.02168 13.6352 2.4873 12.8414 2.09355 11.9289C1.6998 11.0164 1.50293 10.0414 1.50293 9.00391C1.50293 7.96641 1.6998 6.99141 2.09355 6.07891C2.4873 5.16641 3.02168 4.37266 3.69668 3.69766C4.37168 3.02266 5.16543 2.48828 6.07793 2.09453C6.99043 1.70078 7.96543 1.50391 9.00293 1.50391C10.0404 1.50391 11.0154 1.70078 11.9279 2.09453C12.8404 2.48828 13.6342 3.02266 14.3092 3.69766C14.9842 4.37266 15.5186 5.16641 15.9123 6.07891C16.3061 6.99141 16.5029 7.96641 16.5029 9.00391C16.5029 10.0414 16.3061 11.0164 15.9123 11.9289C15.5186 12.8414 14.9842 13.6352 14.3092 14.3102C13.6342 14.9852 12.8404 15.5195 11.9279 15.9133C11.0154 16.307 10.0404 16.5039 9.00293 16.5039Z" fill="#AB2A2A"/>
</g>
</svg>
