<svg width="18" height="18" viewBox="0 0 18 18" fill="none" xmlns="http://www.w3.org/2000/svg">
<mask id="mask0_667_9364" style="mask-type:alpha" maskUnits="userSpaceOnUse" x="0" y="0" width="18" height="18">
<rect width="18" height="18" fill="#D9D9D9"/>
</mask>
<g mask="url(#mask0_667_9364)">
<path d="M7.95098 12.45L13.2385 7.1625L12.1885 6.1125L7.95098 10.35L5.81348 8.2125L4.76348 9.2625L7.95098 12.45ZM9.00098 16.5C7.96348 16.5 6.98848 16.3031 6.07598 15.9094C5.16348 15.5156 4.36973 14.9813 3.69473 14.3063C3.01973 13.6313 2.48535 12.8375 2.0916 11.925C1.69785 11.0125 1.50098 10.0375 1.50098 9C1.50098 7.9625 1.69785 6.9875 2.0916 6.075C2.48535 5.1625 3.01973 4.36875 3.69473 3.69375C4.36973 3.01875 5.16348 2.48438 6.07598 2.09063C6.98848 1.69688 7.96348 1.5 9.00098 1.5C10.0385 1.5 11.0135 1.69688 11.926 2.09063C12.8385 2.48438 13.6322 3.01875 14.3072 3.69375C14.9822 4.36875 15.5166 5.1625 15.9104 6.075C16.3041 6.9875 16.501 7.9625 16.501 9C16.501 10.0375 16.3041 11.0125 15.9104 11.925C15.5166 12.8375 14.9822 13.6313 14.3072 14.3063C13.6322 14.9813 12.8385 15.5156 11.926 15.9094C11.0135 16.3031 10.0385 16.5 9.00098 16.5Z" fill="#306B20"/>
</g>
</svg>
