<svg width="15" height="19" viewBox="0 0 15 19" fill="none" xmlns="http://www.w3.org/2000/svg">
<path d="M6.45 12.95L11.7375 7.6625L10.6875 6.6125L6.45 10.85L4.3125 8.7125L3.2625 9.7625L6.45 12.95ZM7.5 17C6.4625 17 5.4875 16.8031 4.575 16.4094C3.6625 16.0156 2.86875 15.4813 2.19375 14.8063C1.51875 14.1313 0.984375 13.3375 0.590625 12.425C0.196875 11.5125 0 10.5375 0 9.5C0 8.4625 0.196875 7.4875 0.590625 6.575C0.984375 5.6625 1.51875 4.86875 2.19375 4.19375C2.86875 3.51875 3.6625 2.98438 4.575 2.59063C5.4875 2.19688 6.4625 2 7.5 2C8.5375 2 9.5125 2.19688 10.425 2.59063C11.3375 2.98438 12.1313 3.51875 12.8063 4.19375C13.4813 4.86875 14.0156 5.6625 14.4094 6.575C14.8031 7.4875 15 8.4625 15 9.5C15 10.5375 14.8031 11.5125 14.4094 12.425C14.0156 13.3375 13.4813 14.1313 12.8063 14.8063C12.1313 15.4813 11.3375 16.0156 10.425 16.4094C9.5125 16.8031 8.5375 17 7.5 17Z" fill="#3D8B25"/>
</svg>
