<svg width="15" height="19" viewBox="0 0 15 19" fill="none" xmlns="http://www.w3.org/2000/svg">
<path d="M7.5 2C6.01664 2 4.56659 2.43987 3.33323 3.26398C2.09986 4.08809 1.13856 5.25943 0.570907 6.62987C0.00324963 8.00032 -0.145275 9.50832 0.144114 10.9632C0.433503 12.418 1.14781 13.7544 2.1967 14.8033C3.2456 15.8522 4.58197 16.5665 6.03682 16.8559C7.49168 17.1453 8.99968 16.9967 10.3701 16.4291C11.7406 15.8614 12.9119 14.9001 13.736 13.6668C14.5601 12.4334 15 10.9834 15 9.5C14.9979 7.51152 14.207 5.60509 12.801 4.19902C11.3949 2.79295 9.48848 2.0021 7.5 2ZM6.92308 6.03846C6.92308 5.88545 6.98386 5.73871 7.09206 5.63051C7.20025 5.52232 7.34699 5.46154 7.5 5.46154C7.65301 5.46154 7.79975 5.52232 7.90795 5.63051C8.01614 5.73871 8.07692 5.88545 8.07692 6.03846V10.0769C8.07692 10.2299 8.01614 10.3767 7.90795 10.4849C7.79975 10.5931 7.65301 10.6538 7.5 10.6538C7.34699 10.6538 7.20025 10.5931 7.09206 10.4849C6.98386 10.3767 6.92308 10.2299 6.92308 10.0769V6.03846ZM7.5 13.5385C7.32885 13.5385 7.16153 13.4877 7.01922 13.3926C6.87691 13.2975 6.76599 13.1624 6.70049 13.0042C6.63499 12.8461 6.61785 12.6721 6.65125 12.5042C6.68464 12.3364 6.76706 12.1822 6.88808 12.0612C7.00911 11.9401 7.16331 11.8577 7.33117 11.8243C7.49904 11.7909 7.67304 11.8081 7.83117 11.8736C7.9893 11.9391 8.12445 12.05 8.21954 12.1923C8.31463 12.3346 8.36539 12.5019 8.36539 12.6731C8.36539 12.9026 8.27421 13.1227 8.11192 13.285C7.94963 13.4473 7.72952 13.5385 7.5 13.5385Z" fill="#7C5517"/>
</svg>
