<svg width="16" height="16" viewBox="0 0 16 16" fill="none" xmlns="http://www.w3.org/2000/svg">
<path d="M8 0.6875C6.55373 0.6875 5.13993 1.11637 3.9374 1.91988C2.73486 2.72339 1.7976 3.86544 1.24413 5.20163C0.690668 6.53781 0.545857 8.00811 0.828011 9.4266C1.11017 10.8451 1.80661 12.148 2.82928 13.1707C3.85196 14.1934 5.15492 14.8898 6.57341 15.172C7.99189 15.4541 9.46219 15.3093 10.7984 14.7559C12.1346 14.2024 13.2766 13.2651 14.0801 12.0626C14.8836 10.8601 15.3125 9.44628 15.3125 8C15.3105 6.06123 14.5394 4.20246 13.1685 2.83154C11.7975 1.46063 9.93877 0.689547 8 0.6875ZM10.648 7.83547C10.5957 7.88777 10.5337 7.92926 10.4654 7.95756C10.3971 7.98587 10.3239 8.00044 10.25 8.00044C10.1761 8.00044 10.1029 7.98587 10.0346 7.95756C9.96631 7.92926 9.90427 7.88777 9.85203 7.83547L8.5625 6.54523V10.8125C8.5625 10.9617 8.50324 11.1048 8.39775 11.2102C8.29226 11.3157 8.14919 11.375 8 11.375C7.85082 11.375 7.70775 11.3157 7.60226 11.2102C7.49677 11.1048 7.4375 10.9617 7.4375 10.8125V6.54523L6.14797 7.83547C6.04242 7.94102 5.89927 8.00031 5.75 8.00031C5.60074 8.00031 5.45758 7.94102 5.35203 7.83547C5.24649 7.72992 5.18719 7.58677 5.18719 7.4375C5.18719 7.28823 5.24649 7.14508 5.35203 7.03953L7.60203 4.78953C7.65428 4.73723 7.71631 4.69574 7.7846 4.66744C7.85289 4.63913 7.92608 4.62456 8 4.62456C8.07392 4.62456 8.14712 4.63913 8.21541 4.66744C8.28369 4.69574 8.34573 4.73723 8.39797 4.78953L10.648 7.03953C10.7003 7.09177 10.7418 7.15381 10.7701 7.2221C10.7984 7.29038 10.8129 7.36358 10.8129 7.4375C10.8129 7.51142 10.7984 7.58462 10.7701 7.6529C10.7418 7.72119 10.7003 7.78323 10.648 7.83547Z" fill="#306B20"/>
</svg>
