<svg width="16" height="16" viewBox="0 0 16 16" fill="none" xmlns="http://www.w3.org/2000/svg">
<path d="M15.3125 8C15.3125 6.55373 14.8836 5.13993 14.0801 3.9374C13.2766 2.73486 12.1346 1.7976 10.7984 1.24413C9.46219 0.690668 7.99189 0.545856 6.5734 0.828011C5.15492 1.11016 3.85195 1.80661 2.82928 2.82928C1.80661 3.85196 1.11016 5.15492 0.828007 6.5734C0.545853 7.99189 0.690665 9.46219 1.24413 10.7984C1.7976 12.1346 2.73486 13.2766 3.93739 14.0801C5.13993 14.8836 6.55372 15.3125 8 15.3125C9.93865 15.3101 11.7972 14.5389 13.168 13.1681C14.5389 11.7972 15.3101 9.93866 15.3125 8ZM5.75 6.875C5.60082 6.875 5.45774 6.81574 5.35225 6.71025C5.24676 6.60476 5.1875 6.46169 5.1875 6.3125C5.1875 6.16332 5.24676 6.02024 5.35225 5.91476C5.45774 5.80927 5.60082 5.75 5.75 5.75L10.25 5.75C10.3992 5.75 10.5423 5.80927 10.6477 5.91476C10.7532 6.02024 10.8125 6.16332 10.8125 6.3125C10.8125 6.46169 10.7532 6.60476 10.6477 6.71025C10.5423 6.81574 10.3992 6.875 10.25 6.875L5.75 6.875ZM5.75 10.25C5.60082 10.25 5.45774 10.1907 5.35225 10.0853C5.24676 9.97976 5.1875 9.83669 5.1875 9.6875C5.1875 9.53832 5.24676 9.39524 5.35225 9.28975C5.45774 9.18427 5.60082 9.125 5.75 9.125L10.25 9.125C10.3992 9.125 10.5423 9.18427 10.6477 9.28975C10.7532 9.39524 10.8125 9.53832 10.8125 9.6875C10.8125 9.83669 10.7532 9.97976 10.6477 10.0853C10.5423 10.1907 10.3992 10.25 10.25 10.25L5.75 10.25Z" fill="#933619"/>
</svg>
