<svg width="16" height="16" viewBox="0 0 16 16" fill="none" xmlns="http://www.w3.org/2000/svg">
<path d="M8 15.3125C6.55373 15.3125 5.13993 14.8836 3.9374 14.0801C2.73486 13.2766 1.7976 12.1346 1.24413 10.7984C0.690668 9.46219 0.545857 7.99189 0.828011 6.5734C1.11017 5.15492 1.80661 3.85195 2.82928 2.82928C3.85196 1.80661 5.15492 1.11016 6.57341 0.828008C7.99189 0.545854 9.46219 0.690665 10.7984 1.24413C12.1346 1.7976 13.2766 2.73486 14.0801 3.93739C14.8836 5.13993 15.3125 6.55372 15.3125 8C15.3105 9.93877 14.5394 11.7975 13.1685 13.1685C11.7975 14.5394 9.93877 15.3105 8 15.3125ZM10.648 8.16453C10.5957 8.11223 10.5337 8.07074 10.4654 8.04244C10.3971 8.01413 10.3239 7.99956 10.25 7.99956C10.1761 7.99956 10.1029 8.01413 10.0346 8.04244C9.96631 8.07074 9.90427 8.11223 9.85203 8.16453L8.5625 9.45477V5.1875C8.5625 5.03832 8.50324 4.89524 8.39775 4.78975C8.29226 4.68426 8.14919 4.625 8 4.625C7.85082 4.625 7.70775 4.68426 7.60226 4.78975C7.49677 4.89524 7.4375 5.03832 7.4375 5.1875V9.45477L6.14797 8.16453C6.04242 8.05898 5.89927 7.99969 5.75 7.99969C5.60074 7.99969 5.45758 8.05898 5.35203 8.16453C5.24649 8.27008 5.18719 8.41323 5.18719 8.5625C5.18719 8.71177 5.24649 8.85492 5.35203 8.96047L7.60203 11.2105C7.65428 11.2628 7.71631 11.3043 7.7846 11.3326C7.85289 11.3609 7.92608 11.3754 8 11.3754C8.07392 11.3754 8.14712 11.3609 8.21541 11.3326C8.28369 11.3043 8.34573 11.2628 8.39797 11.2105L10.648 8.96047C10.7003 8.90823 10.7418 8.84619 10.7701 8.7779C10.7984 8.70962 10.8129 8.63642 10.8129 8.5625C10.8129 8.48858 10.7984 8.41538 10.7701 8.3471C10.7418 8.27881 10.7003 8.21677 10.648 8.16453Z" fill="#AB2A2A"/>
</svg>
