<svg width="24" height="24" viewBox="0 0 24 24" fill="none" xmlns="http://www.w3.org/2000/svg">
<path d="M7.83203 3.66797C7.16899 3.66797 6.53311 3.93136 6.06426 4.4002C5.59542 4.86904 5.33203 5.50493 5.33203 6.16797V17.8346C5.33203 18.4977 5.59542 19.1336 6.06426 19.6024C6.5331 20.0712 7.16899 20.3346 7.83203 20.3346H16.1654C16.8284 20.3346 17.4643 20.0712 17.9331 19.6024C18.402 19.1336 18.6654 18.4977 18.6654 17.8346V17.0013C18.6654 16.5411 18.2923 16.168 17.832 16.168C17.3718 16.168 16.9987 16.5411 16.9987 17.0013V17.8346C16.9987 18.0556 16.9109 18.2676 16.7546 18.4239C16.5983 18.5802 16.3864 18.668 16.1654 18.668H7.83203C7.61102 18.668 7.39906 18.5802 7.24278 18.4239C7.0865 18.2676 6.9987 18.0556 6.9987 17.8346V6.16797C6.9987 5.94695 7.0865 5.73499 7.24278 5.57871C7.39906 5.42243 7.61102 5.33464 7.83203 5.33464H16.1654C16.3864 5.33464 16.5983 5.42243 16.7546 5.57871C16.9109 5.73499 16.9987 5.94696 16.9987 6.16797V7.0013C16.9987 7.46154 17.3718 7.83464 17.832 7.83464C18.2923 7.83464 18.6654 7.46154 18.6654 7.0013V6.16797C18.6654 5.50493 18.402 4.86904 17.9331 4.4002C17.4643 3.93136 16.8284 3.66797 16.1654 3.66797H7.83203Z" fill="#CC3636"/>
<path d="M15.9213 8.91205C15.5958 8.58661 15.0682 8.58661 14.7428 8.91205C14.4173 9.23748 14.4173 9.76512 14.7428 10.0906L15.8202 11.168H11.9987C11.5385 11.168 11.1654 11.5411 11.1654 12.0013C11.1654 12.4615 11.5385 12.8346 11.9987 12.8346H15.8202L14.7428 13.912C14.4173 14.2375 14.4173 14.7651 14.7428 15.0906C15.0682 15.416 15.5958 15.416 15.9213 15.0906L18.4213 12.5906C18.7467 12.2651 18.7467 11.7375 18.4213 11.412L15.9213 8.91205Z" fill="#CC3636"/>
</svg>
