<svg width="18" height="18" viewBox="0 0 18 18" fill="none" xmlns="http://www.w3.org/2000/svg">
<mask id="mask0_1693_299299" style="mask-type:alpha" maskUnits="userSpaceOnUse" x="0" y="0" width="18" height="18">
<rect width="18" height="18" fill="#363744"/>
</mask>
<g mask="url(#mask0_1693_299299)">
<path d="M3 16.5046C2.5875 16.5046 2.23438 16.3578 1.94063 16.064C1.64688 15.7703 1.5 15.4171 1.5 15.0046V3.00463C1.5 2.59213 1.64688 2.23901 1.94063 1.94526C2.23438 1.65151 2.5875 1.50463 3 1.50463H7.5C7.7125 1.50463 7.89063 1.57651 8.03438 1.72026C8.17813 1.86401 8.25 2.04213 8.25 2.25463C8.25 2.46713 8.17813 2.64526 8.03438 2.78901C7.89063 2.93276 7.7125 3.00463 7.5 3.00463H3V15.0046H11.25V14.2546C11.25 14.0421 11.3219 13.864 11.4656 13.7203C11.6094 13.5765 11.7875 13.5046 12 13.5046C12.2125 13.5046 12.3906 13.5765 12.5344 13.7203C12.6781 13.864 12.75 14.0421 12.75 14.2546V15.0046C12.75 15.4171 12.6031 15.7703 12.3094 16.064C12.0156 16.3578 11.6625 16.5046 11.25 16.5046H3ZM5.25 13.5046C5.0375 13.5046 4.85938 13.4328 4.71562 13.289C4.57187 13.1453 4.5 12.9671 4.5 12.7546C4.5 12.5421 4.57187 12.364 4.71562 12.2203C4.85938 12.0765 5.0375 12.0046 5.25 12.0046H9C9.2125 12.0046 9.39063 12.0765 9.53438 12.2203C9.67813 12.364 9.75 12.5421 9.75 12.7546C9.75 12.9671 9.67813 13.1453 9.53438 13.289C9.39063 13.4328 9.2125 13.5046 9 13.5046H5.25ZM5.25 11.2546C5.0375 11.2546 4.85938 11.1828 4.71562 11.039C4.57187 10.8953 4.5 10.7171 4.5 10.5046C4.5 10.2921 4.57187 10.114 4.71562 9.97026C4.85938 9.82651 5.0375 9.75463 5.25 9.75463H7.5C7.7125 9.75463 7.89063 9.82651 8.03438 9.97026C8.17813 10.114 8.25 10.2921 8.25 10.5046C8.25 10.7171 8.17813 10.8953 8.03438 11.039C7.89063 11.1828 7.7125 11.2546 7.5 11.2546H5.25ZM7.125 8.25463C6.8125 8.25463 6.54688 8.14526 6.32812 7.92651C6.10938 7.70776 6 7.44213 6 7.12963V5.62963C6 5.31713 6.10938 5.05151 6.32812 4.83276C6.54688 4.61401 6.8125 4.50463 7.125 4.50463H8.25L9.975 2.77963C10.0375 2.71713 10.1156 2.66401 10.2094 2.62026C10.3031 2.57651 10.4 2.55463 10.5 2.55463C10.7125 2.55463 10.8906 2.62963 11.0344 2.77963C11.1781 2.92963 11.25 3.11088 11.25 3.32338V9.43588C11.25 9.64838 11.1781 9.82963 11.0344 9.97963C10.8906 10.1296 10.7125 10.2046 10.5 10.2046C10.4 10.2046 10.3031 10.1828 10.2094 10.139C10.1156 10.0953 10.0375 10.0421 9.975 9.97963L8.25 8.25463H7.125ZM14.25 6.37963C14.25 6.79213 14.1688 7.18588 14.0063 7.56088C13.8438 7.93588 13.6125 8.26713 13.3125 8.55463C13.2125 8.65463 13.0938 8.67338 12.9563 8.61088C12.8188 8.54838 12.75 8.43588 12.75 8.27338V4.48588C12.75 4.33588 12.8188 4.22651 12.9563 4.15776C13.0938 4.08901 13.2125 4.10463 13.3125 4.20463C13.6125 4.49213 13.8438 4.82338 14.0063 5.19838C14.1688 5.57338 14.25 5.96713 14.25 6.37963ZM15.75 6.37963C15.75 5.55463 15.5406 4.79213 15.1219 4.09213C14.7031 3.39213 14.1313 2.84213 13.4062 2.44213C13.2188 2.34213 13.0875 2.19526 13.0125 2.00151C12.9375 1.80776 12.9375 1.61713 13.0125 1.42963C13.0875 1.22963 13.2219 1.08901 13.4156 1.00776C13.6094 0.926509 13.7937 0.935884 13.9688 1.03588C14.9812 1.56088 15.7813 2.29838 16.3688 3.24838C16.9563 4.19838 17.25 5.24213 17.25 6.37963C17.25 7.51713 16.9563 8.56088 16.3688 9.51088C15.7813 10.4609 14.9812 11.1984 13.9688 11.7234C13.7937 11.8234 13.6094 11.8328 13.4156 11.7515C13.2219 11.6703 13.0875 11.5296 13.0125 11.3296C12.9375 11.1421 12.9375 10.9515 13.0125 10.7578C13.0875 10.564 13.2188 10.4171 13.4062 10.3171C14.1313 9.91713 14.7031 9.36713 15.1219 8.66713C15.5406 7.96713 15.75 7.20463 15.75 6.37963Z" fill="#363744"/>
</g>
</svg>
