<svg width="17" height="18" viewBox="0 0 17 18" fill="none" xmlns="http://www.w3.org/2000/svg">
<g clip-path="url(#clip0_1012_26228)">
<path d="M12.585 0H0.75C0.335786 0 0 0.335786 0 0.75V17.25C0 17.6642 0.335786 18 0.75 18H12.585C12.9992 18 13.335 17.6642 13.335 17.25V0.75C13.335 0.335786 12.9992 0 12.585 0Z" fill="#8ECFF8"/>
<path d="M9.47906 2.16906H3.85406C3.68156 2.16906 3.53906 2.02656 3.53906 1.85406C3.53906 1.68156 3.68156 1.53906 3.85406 1.53906H9.47906C9.65156 1.53906 9.79406 1.68156 9.79406 1.85406C9.79406 2.02656 9.65156 2.16906 9.47906 2.16906Z" fill="white"/>
<path d="M11.0261 5.27844H2.31109C2.13859 5.27844 1.99609 5.13594 1.99609 4.96344C1.99609 4.79094 2.13859 4.64844 2.31109 4.64844H11.0261C11.1986 4.64844 11.3411 4.79094 11.3411 4.96344C11.3411 5.13594 11.1986 5.27844 11.0261 5.27844Z" fill="white"/>
<path d="M11.0261 8.48156H2.31109C2.13859 8.48156 1.99609 8.33906 1.99609 8.16656C1.99609 7.99406 2.13859 7.85156 2.31109 7.85156H11.0261C11.1986 7.85156 11.3411 7.99406 11.3411 8.16656C11.3411 8.33906 11.1986 8.48156 11.0261 8.48156Z" fill="white"/>
<path d="M11.0261 11.6847H2.31109C2.13859 11.6847 1.99609 11.5422 1.99609 11.3697C1.99609 11.1972 2.13859 11.0547 2.31109 11.0547H11.0261C11.1986 11.0547 11.3411 11.1972 11.3411 11.3697C11.3411 11.5422 11.1986 11.6847 11.0261 11.6847Z" fill="white"/>
<path d="M7.78609 14.8878H2.31109C2.13859 14.8878 1.99609 14.7453 1.99609 14.5728C1.99609 14.4003 2.13859 14.2578 2.31109 14.2578H7.77859C7.95109 14.2578 8.09359 14.4003 8.09359 14.5728C8.09359 14.7453 7.95109 14.8878 7.77859 14.8878H7.78609Z" fill="white"/>
<path d="M9.47281 6.66939C9.36031 6.66939 9.24781 6.63189 9.16531 6.54939L8.01781 5.53689C7.82281 5.36439 7.80781 5.07189 7.97281 4.87689C8.14531 4.68189 8.43781 4.66689 8.63281 4.83189L9.48031 5.57439L11.9328 3.51189C12.1278 3.34689 12.4278 3.36939 12.5928 3.57189C12.7578 3.76689 12.7353 4.06689 12.5328 4.23189L9.77281 6.55689C9.68281 6.63189 9.57781 6.66939 9.47281 6.66939Z" fill="#086AC5"/>
<path d="M2.66922 12.8384C1.75422 12.8384 1.01172 12.0959 1.01172 11.1809C1.01172 10.2659 1.75422 9.52344 2.66922 9.52344C3.58422 9.52344 4.32672 10.2659 4.32672 11.1809C4.32672 12.0959 3.58422 12.8384 2.66922 12.8384ZM2.66922 10.4684C2.27172 10.4684 1.94922 10.7909 1.94922 11.1884C1.94922 11.5859 2.27172 11.9084 2.66922 11.9084C3.06672 11.9084 3.38922 11.5859 3.38922 11.1884C3.38922 10.7909 3.06672 10.4684 2.66922 10.4684Z" fill="#086AC5"/>
<path d="M16.3109 12.0991C16.5809 11.8666 16.6034 11.4616 16.3709 11.1916L15.7859 10.5166C15.5534 10.2466 15.1484 10.2241 14.8784 10.4566L14.5259 10.7641L9.89844 14.7916L11.3309 16.4341L16.0859 12.3016L16.3109 12.1066V12.0991Z" fill="#0D5B9B"/>
<path d="M11.3327 16.4355L9.28516 16.773L9.90016 14.793L11.3327 16.4355Z" fill="#EDF9FF"/>
</g>
<defs>
<clipPath id="clip0_1012_26228">
<rect width="16.53" height="18" fill="white"/>
</clipPath>
</defs>
</svg>
