<svg width="24" height="24" viewBox="0 0 24 24" fill="none" xmlns="http://www.w3.org/2000/svg">
<path d="M8.66667 9.4987C8.20643 9.4987 7.83333 9.87179 7.83333 10.332C7.83333 10.7923 8.20643 11.1654 8.66667 11.1654H15.3333C15.7936 11.1654 16.1667 10.7923 16.1667 10.332C16.1667 9.87179 15.7936 9.4987 15.3333 9.4987H8.66667Z" fill="#D7D8E0"/>
<path d="M8.66667 12.832C8.20643 12.832 7.83333 13.2051 7.83333 13.6654C7.83333 14.1256 8.20643 14.4987 8.66667 14.4987H12C12.4602 14.4987 12.8333 14.1256 12.8333 13.6654C12.8333 13.2051 12.4602 12.832 12 12.832H8.66667Z" fill="#D7D8E0"/>
<path d="M8.66667 16.1654C8.20643 16.1654 7.83333 16.5385 7.83333 16.9987C7.83333 17.4589 8.20643 17.832 8.66667 17.832H15.3333C15.7936 17.832 16.1667 17.4589 16.1667 16.9987C16.1667 16.5385 15.7936 16.1654 15.3333 16.1654H8.66667Z" fill="#D7D8E0"/>
<path fill-rule="evenodd" clip-rule="evenodd" d="M19.399 6.28002C19.3319 6.11771 19.2335 5.97025 19.1093 5.84611L16.4863 3.22314C16.2365 2.97302 15.8976 2.83234 15.5441 2.83203H5.83333C5.47971 2.83203 5.14057 2.97251 4.89052 3.22256C4.64048 3.4726 4.5 3.81174 4.5 4.16536V19.832C4.5 20.0071 4.53449 20.1805 4.60149 20.3423C4.6685 20.504 4.76671 20.651 4.89052 20.7748C5.01433 20.8987 5.16132 20.9969 5.32309 21.0639C5.48486 21.1309 5.65824 21.1654 5.83333 21.1654H18.1667C18.3418 21.1654 18.5151 21.1309 18.6769 21.0639C18.8387 20.9969 18.9857 20.8987 19.1095 20.7748C19.2333 20.651 19.3315 20.504 19.3985 20.3423C19.4655 20.1805 19.5 20.0071 19.5 19.832V6.79062L18.6667 6.79036L19.5 6.79241L19.5 6.79062C19.5002 6.61544 19.4659 6.44193 19.399 6.28002ZM14.5 6.58203C14.5 7.27239 15.0596 7.83203 15.75 7.83203H17.8333V19.4987H6.16667V4.4987H14.5V6.58203ZM17.0715 6.16536L16.1667 5.26054V6.16536H17.0715Z" fill="#D7D8E0"/>
</svg>
