<svg width="18" height="18" viewBox="0 0 18 18" fill="none" xmlns="http://www.w3.org/2000/svg">
<mask id="mask0_1693_299213" style="mask-type:alpha" maskUnits="userSpaceOnUse" x="0" y="0" width="18" height="18">
<rect width="18" height="18" fill="#772F17"/>
</mask>
<g mask="url(#mask0_1693_299213)">
<path d="M4.275 9.43125H6.225L6.58125 10.425C6.60625 10.5 6.65 10.5594 6.7125 10.6031C6.775 10.6469 6.85 10.6688 6.9375 10.6688C7.075 10.6688 7.18437 10.6125 7.26562 10.5C7.34688 10.3875 7.3625 10.2688 7.3125 10.1438L5.775 6.09375C5.75 6.01875 5.70312 5.95625 5.63438 5.90625C5.56563 5.85625 5.4875 5.83125 5.4 5.83125H5.1C5.0125 5.83125 4.93438 5.85625 4.86563 5.90625C4.79688 5.95625 4.75 6.01875 4.725 6.09375L3.1875 10.1438C3.1375 10.2688 3.15313 10.3875 3.23438 10.5C3.31562 10.6125 3.425 10.6688 3.5625 10.6688C3.65 10.6688 3.72813 10.6469 3.79688 10.6031C3.86562 10.5594 3.9125 10.4938 3.9375 10.4063L4.275 9.43125ZM4.51875 8.7375L5.23125 6.73125H5.26875L5.98125 8.7375H4.51875ZM4.875 12C5.4625 12 6.03437 12.0656 6.59062 12.1969C7.14687 12.3281 7.7 12.525 8.25 12.7875V5.4C7.7375 5.1 7.19375 4.875 6.61875 4.725C6.04375 4.575 5.4625 4.5 4.875 4.5C4.425 4.5 3.97813 4.54375 3.53438 4.63125C3.09063 4.71875 2.6625 4.85 2.25 5.025V12.45C2.6875 12.3 3.12188 12.1875 3.55312 12.1125C3.98438 12.0375 4.425 12 4.875 12ZM9.75 12.7875C10.3 12.525 10.8531 12.3281 11.4094 12.1969C11.9656 12.0656 12.5375 12 13.125 12C13.575 12 14.0156 12.0375 14.4469 12.1125C14.8781 12.1875 15.3125 12.3 15.75 12.45V5.025C15.3375 4.85 14.9094 4.71875 14.4656 4.63125C14.0219 4.54375 13.575 4.5 13.125 4.5C12.5375 4.5 11.9563 4.575 11.3813 4.725C10.8063 4.875 10.2625 5.1 9.75 5.4V12.7875ZM9 14.6063C8.825 14.6063 8.65938 14.5844 8.50313 14.5406C8.34688 14.4969 8.2 14.4375 8.0625 14.3625C7.575 14.075 7.0625 13.8594 6.525 13.7156C5.9875 13.5719 5.4375 13.5 4.875 13.5C4.35 13.5 3.83437 13.5688 3.32812 13.7063C2.82188 13.8438 2.3375 14.0375 1.875 14.2875C1.6125 14.425 1.35938 14.4188 1.11563 14.2688C0.871875 14.1188 0.75 13.9 0.75 13.6125V4.575C0.75 4.4375 0.784375 4.30625 0.853125 4.18125C0.921875 4.05625 1.025 3.9625 1.1625 3.9C1.7375 3.6 2.3375 3.375 2.9625 3.225C3.5875 3.075 4.225 3 4.875 3C5.6 3 6.30938 3.09375 7.00313 3.28125C7.69688 3.46875 8.3625 3.75 9 4.125C9.6375 3.75 10.3031 3.46875 10.9969 3.28125C11.6906 3.09375 12.4 3 13.125 3C13.775 3 14.4125 3.075 15.0375 3.225C15.6625 3.375 16.2625 3.6 16.8375 3.9C16.975 3.9625 17.0781 4.05625 17.1469 4.18125C17.2156 4.30625 17.25 4.4375 17.25 4.575V13.6125C17.25 13.9 17.1281 14.1188 16.8844 14.2688C16.6406 14.4188 16.3875 14.425 16.125 14.2875C15.6625 14.0375 15.1781 13.8438 14.6719 13.7063C14.1656 13.5688 13.65 13.5 13.125 13.5C12.5625 13.5 12.0125 13.5719 11.475 13.7156C10.9375 13.8594 10.425 14.075 9.9375 14.3625C9.8 14.4375 9.65312 14.4969 9.49688 14.5406C9.34063 14.5844 9.175 14.6063 9 14.6063ZM10.5 6.58125C10.5 6.46875 10.5406 6.35313 10.6219 6.23438C10.7031 6.11563 10.7938 6.0375 10.8938 6C11.2563 5.875 11.6188 5.78125 11.9813 5.71875C12.3438 5.65625 12.725 5.625 13.125 5.625C13.375 5.625 13.6219 5.64063 13.8656 5.67188C14.1094 5.70313 14.35 5.74375 14.5875 5.79375C14.7 5.81875 14.7969 5.88125 14.8781 5.98125C14.9594 6.08125 15 6.19375 15 6.31875C15 6.53125 14.9313 6.6875 14.7938 6.7875C14.6562 6.8875 14.4812 6.9125 14.2687 6.8625C14.0938 6.825 13.9094 6.79688 13.7156 6.77813C13.5219 6.75938 13.325 6.75 13.125 6.75C12.8 6.75 12.4812 6.78125 12.1688 6.84375C11.8563 6.90625 11.5563 6.9875 11.2688 7.0875C11.0438 7.175 10.8594 7.16875 10.7156 7.06875C10.5719 6.96875 10.5 6.80625 10.5 6.58125ZM10.5 10.7063C10.5 10.5938 10.5406 10.4781 10.6219 10.3594C10.7031 10.2406 10.7938 10.1625 10.8938 10.125C11.2563 10 11.6188 9.90625 11.9813 9.84375C12.3438 9.78125 12.725 9.75 13.125 9.75C13.375 9.75 13.6219 9.76563 13.8656 9.79688C14.1094 9.82813 14.35 9.86875 14.5875 9.91875C14.7 9.94375 14.7969 10.0063 14.8781 10.1063C14.9594 10.2063 15 10.3188 15 10.4438C15 10.6563 14.9313 10.8125 14.7938 10.9125C14.6562 11.0125 14.4812 11.0375 14.2687 10.9875C14.0938 10.95 13.9094 10.9219 13.7156 10.9031C13.5219 10.8844 13.325 10.875 13.125 10.875C12.8 10.875 12.4812 10.9031 12.1688 10.9594C11.8563 11.0156 11.5563 11.0938 11.2688 11.1938C11.0438 11.2813 10.8594 11.2781 10.7156 11.1844C10.5719 11.0906 10.5 10.9313 10.5 10.7063ZM10.5 8.64375C10.5 8.53125 10.5406 8.41563 10.6219 8.29688C10.7031 8.17813 10.7938 8.1 10.8938 8.0625C11.2563 7.9375 11.6188 7.84375 11.9813 7.78125C12.3438 7.71875 12.725 7.6875 13.125 7.6875C13.375 7.6875 13.6219 7.70313 13.8656 7.73438C14.1094 7.76563 14.35 7.80625 14.5875 7.85625C14.7 7.88125 14.7969 7.94375 14.8781 8.04375C14.9594 8.14375 15 8.25625 15 8.38125C15 8.59375 14.9313 8.75 14.7938 8.85C14.6562 8.95 14.4812 8.975 14.2687 8.925C14.0938 8.8875 13.9094 8.85938 13.7156 8.84063C13.5219 8.82188 13.325 8.8125 13.125 8.8125C12.8 8.8125 12.4812 8.84375 12.1688 8.90625C11.8563 8.96875 11.5563 9.05 11.2688 9.15C11.0438 9.2375 10.8594 9.23125 10.7156 9.13125C10.5719 9.03125 10.5 8.86875 10.5 8.64375Z" fill="#772F17"/>
</g>
</svg>
