<svg width="18" height="18" viewBox="0 0 18 18" fill="none" xmlns="http://www.w3.org/2000/svg">
<path d="M9 1.6875C7.55373 1.6875 6.13993 2.11637 4.9374 2.91988C3.73486 3.72339 2.7976 4.86544 2.24413 6.20163C1.69067 7.53781 1.54586 9.00811 1.82801 10.4266C2.11017 11.8451 2.80661 13.148 3.82928 14.1707C4.85196 15.1934 6.15492 15.8898 7.57341 16.172C8.99189 16.4541 10.4622 16.3093 11.7984 15.7559C13.1346 15.2024 14.2766 14.2651 15.0801 13.0626C15.8836 11.8601 16.3125 10.4463 16.3125 9C16.3105 7.06123 15.5394 5.20246 14.1685 3.83154C12.7975 2.46063 10.9388 1.68955 9 1.6875ZM8.4375 5.625C8.4375 5.47582 8.49677 5.33274 8.60226 5.22725C8.70775 5.12176 8.85082 5.0625 9 5.0625C9.14919 5.0625 9.29226 5.12176 9.39775 5.22725C9.50324 5.33274 9.5625 5.47582 9.5625 5.625V9.5625C9.5625 9.71168 9.50324 9.85476 9.39775 9.96025C9.29226 10.0657 9.14919 10.125 9 10.125C8.85082 10.125 8.70775 10.0657 8.60226 9.96025C8.49677 9.85476 8.4375 9.71168 8.4375 9.5625V5.625ZM9 12.9375C8.83313 12.9375 8.66999 12.888 8.53124 12.7953C8.39249 12.7026 8.28434 12.5708 8.22048 12.4166C8.15662 12.2625 8.13991 12.0928 8.17247 11.9291C8.20502 11.7655 8.28538 11.6151 8.40338 11.4971C8.52138 11.3791 8.67172 11.2988 8.8354 11.2662C8.99907 11.2337 9.16872 11.2504 9.32289 11.3142C9.47707 11.3781 9.60884 11.4862 9.70156 11.625C9.79427 11.7637 9.84375 11.9269 9.84375 12.0938C9.84375 12.3175 9.75486 12.5321 9.59662 12.6904C9.43839 12.8486 9.22378 12.9375 9 12.9375Z" fill="#7C5517"/>
</svg>
